<svg width="27" height="25" viewBox="0 0 27 25" fill="none" xmlns="http://www.w3.org/2000/svg">
<path d="M12.728 0.48C9.752 0.48 7.544 2.112 6.488 5.184V1.344C6.488 0.623999 6.152 0.239998 5.24 0.671999L1.592 2.304C1.16 2.544 0.872 2.832 0.872 3.168V3.264C0.872 4.176 2.792 4.224 2.792 6.048V20.64C2.792 22.32 1.016 22.368 1.016 23.232V23.424C1.016 23.808 1.352 24 1.976 24H7.928C8.552 24 8.888 23.808 8.888 23.424V23.232C8.888 22.368 6.872 22.32 6.872 20.64V9.696C6.872 6.096 8.312 3.072 10.952 3.072C13.928 3.072 12.728 6.432 15.224 6.432C16.568 6.432 17.144 5.424 17.144 4.176C17.144 2.16 15.608 0.48 12.728 0.48ZM23.0585 24.48C24.7385 24.48 26.0825 23.472 26.0825 21.648C26.0825 19.728 24.7385 18.72 23.0585 18.72C21.3305 18.72 19.9865 19.728 19.9865 21.648C19.9865 23.472 21.3305 24.48 23.0585 24.48Z" fill="black"/>
</svg>
